<?xml version="1.0" encoding="utf-8"?>
<!-- Generator: Adobe Illustrator 18.1.1, SVG Export Plug-In . SVG Version: 6.00 Build 0)  -->
<svg version="1.1" id="Layer_1" xmlns="http://www.w3.org/2000/svg" xmlns:xlink="http://www.w3.org/1999/xlink" x="0px" y="0px"
	 viewBox="0 0 200 45.2" enable-background="new 0 0 200 45.2" xml:space="preserve">
<g>
	<path d="M21.6,1.4c6,0,11,2,15,6c4,4,6,8.9,6,14.7c0,5.8-2,10.7-6,14.7s-8.9,6-14.7,6c-5.9,0-10.8-2-14.8-6c-4-4-6-8.9-6-14.6
		c0-3.8,0.9-7.3,2.8-10.6C5.7,8.6,8.2,6,11.3,4.2C14.5,2.4,17.9,1.4,21.6,1.4z M21.8,5.3c-2.9,0-5.7,0.8-8.3,2.3
		c-2.6,1.5-4.7,3.6-6.1,6.2s-2.2,5.5-2.2,8.6C5.1,27,6.8,31,10,34.2c3.3,3.2,7.2,4.9,11.8,4.9c3.1,0,5.9-0.7,8.5-2.2
		c2.6-1.5,4.6-3.5,6.1-6.1s2.2-5.4,2.2-8.6c0-3.1-0.7-6-2.2-8.5c-1.5-2.5-3.5-4.6-6.2-6.1C27.6,6,24.8,5.3,21.8,5.3z"/>
	<path d="M66.1,2.4h7.9c4.4,0,7.4,0.2,8.9,0.5c2.3,0.5,4.3,1.7,5.7,3.5c1.5,1.8,2.2,3.9,2.2,6.5c0,2.2-0.5,4-1.5,5.7
		c-1,1.6-2.5,2.9-4.3,3.7c-1.9,0.8-4.5,1.3-7.8,1.3l14.2,18.3h-4.9L72.2,23.6H70v18.3h-3.9V2.4z M70,6.3v13.4l6.8,0.1
		c2.6,0,4.6-0.3,5.9-0.8c1.3-0.5,2.3-1.3,3-2.4s1.1-2.3,1.1-3.7c0-1.3-0.4-2.5-1.1-3.6c-0.7-1.1-1.7-1.9-2.8-2.3
		c-1.2-0.5-3.1-0.7-5.8-0.7H70z"/>
	<path d="M151.2,9.8l-3.1,2.4c-1.7-2.2-3.8-3.9-6.2-5.1c-2.4-1.2-5.1-1.7-7.9-1.7c-3.2,0-6.1,0.8-8.8,2.3c-2.7,1.5-4.8,3.5-6.2,6.1
		c-1.5,2.6-2.2,5.4-2.2,8.6c0,4.8,1.7,8.8,5,12.1c3.3,3.2,7.5,4.8,12.5,4.8c5.5,0,10.2-2.2,13.9-6.5l3.1,2.4c-2,2.5-4.4,4.4-7.4,5.8
		c-2.9,1.4-6.2,2.1-9.9,2.1c-6.9,0-12.4-2.3-16.4-6.9c-3.3-3.9-5-8.6-5-14.1c0-5.8,2-10.6,6.1-14.6c4.1-3.9,9.1-5.9,15.2-5.9
		c3.7,0,7,0.7,10,2.2C146.9,5.1,149.3,7.1,151.2,9.8z"/>
	<path d="M174.4,2.4h7.9c4.5,0,7.6,0.2,9.1,0.6c2.3,0.6,4.1,1.7,5.5,3.4c1.4,1.7,2.1,3.9,2.1,6.5c0,2.6-0.7,4.8-2.1,6.5
		c-1.4,1.7-3.3,2.9-5.8,3.5c-1.8,0.4-5.1,0.6-10,0.6h-2.8v18.4h-3.9V2.4z M178.3,6.3v13.4l6.7,0.1c2.7,0,4.7-0.2,5.9-0.7
		c1.3-0.5,2.2-1.3,3-2.4c0.7-1.1,1.1-2.3,1.1-3.7c0-1.3-0.4-2.5-1.1-3.6c-0.7-1.1-1.7-1.9-2.8-2.3c-1.2-0.5-3.1-0.7-5.8-0.7H178.3z"
		/>
</g>
<circle cx="51.7" cy="37.7" r="4.3"/>
<rect x="97.3" y="33.8" width="7.9" height="7.9"/>
<polygon points="156.1,41.3 161.2,33 166.2,41.3 "/>
</svg>
