<?xml version="1.0" encoding="utf-8"?>
<!-- Generator: Adobe Illustrator 18.1.1, SVG Export Plug-In . SVG Version: 6.00 Build 0)  -->
<svg version="1.1" id="Layer_1" xmlns="http://www.w3.org/2000/svg" xmlns:xlink="http://www.w3.org/1999/xlink" x="0px" y="0px"
	 viewBox="0 0 200 150" enable-background="new 0 0 200 150" xml:space="preserve">
<g>
	<path d="M-64.1,161c0-3.2,0-6.4,0-9.6c6.8-6.6,13.5-13.4,20.2-20C-29,116.6-14,101.8,0.9,86.9c15-14.8,30-29.7,45-44.6
		c17.2-17,34.3-34,51.4-51c1.7-1.7,3.4-3.4,5.2-5.1c0.2,0.3,0.3,0.5,0.5,0.6c4.7,4.9,9.5,9.7,14.2,14.6c15.1,15.5,30.2,31,45.3,46.5
		C179,65,195.4,81.9,211.8,98.8c17,17.4,34,34.8,50.9,52.2c0.6,0.6,0.9,1.2,0.9,2.1c-0.1,2.3,0,4.6,0,6.9c0,0.3,0,0.6-0.1,1
		c-0.5,0-1,0-1.4,0c-108.2,0-216.4,0-324.6,0C-63,161-63.5,161-64.1,161z"/>
</g>
</svg>
