<?xml version="1.0" encoding="utf-8"?>
<!-- Generator: Adobe Illustrator 18.1.1, SVG Export Plug-In . SVG Version: 6.00 Build 0)  -->
<svg version="1.1" id="Layer_1" xmlns="http://www.w3.org/2000/svg" xmlns:xlink="http://www.w3.org/1999/xlink" x="0px" y="0px"
	 viewBox="0 0 1680 1124" style="enable-background:new 0 0 1680 1124;" xml:space="preserve">
<style type="text/css">
	.st0{fill:#003386;}
	.st1{fill:#7C8087;}
	.st2{fill:#05257E;}
	.st3{fill:#06237D;}
	.st4{fill:#0B2880;}
	.st5{fill:#062981;}
	.st6{fill:#72767E;}
	.st7{fill:#0A247E;}
	.st8{fill:#0E2780;}
	.st9{fill:#72767D;}
	.st10{fill:#6F747B;}
	.st11{fill:#6F747C;}
	.st12{fill:#6D727A;}
	.st13{fill:#6B7078;}
	.st14{fill:#6E727A;}
	.st15{fill:#696E76;}
	.st16{fill:#70747C;}
	.st17{fill:#08227C;}
	.st18{fill:#08227D;}
	.st19{fill:#061E7A;}
	.st20{fill:#031C79;}
	.st21{fill:#041D7A;}
	.st22{fill:#08217C;}
	.st23{fill:#061D7A;}
	.st24{fill:#051C79;}
	.st25{fill:#6F737B;}
	.st26{fill:#051E7A;}
	.st27{fill:#6C7078;}
	.st28{fill:#091E7B;}
	.st29{fill:#6D7179;}
	.st30{fill:#011978;}
	.st31{fill:#051B78;}
	.st32{fill:#001575;}
	.st33{fill:#051977;}
	.st34{fill:#021F7B;}
	.st35{fill:#001876;}
</style>
<g>
	<path d="M1100.2,599c-0.1-68.9,46.7-130.4,113.1-147.8c63.6-16.7,119.5-1.7,164.1,47.1c30.8,33.6,42.7,74.4,36.6,119.8
		c-8.6,63.7-58.7,116.5-122,128.9c-52.2,10.2-99.1-1.1-139.6-35.7c-28.3-24.2-45-55.3-50.6-92.2C1100.8,612,1100.6,604.9,1100.2,599
		z"/>
	<path d="M516.7,578.2c0,67.7-46.6,129.1-112.9,146.5c-63.6,16.7-119.4,1.8-164.1-46.9c-30.7-33.4-42.6-73.9-36.9-119.2
		c8-64.1,58.6-116.7,123.7-130c68.2-13.9,142.4,17.5,175.2,84.3C511.7,533.4,516.6,555.3,516.7,578.2z"/>
	<path class="st0" d="M942.3,216.9c4.1,3.1,7.7,6.7,10.8,10.8c0.6,1.5,1.4,2.7,2.9,3.3c7.8,8.4,13.8,17.8,18.9,28
		c0.5,3.4,2.2,6.2,4.2,8.9c1.8,2.5,2.6,5.4,3.6,8.2c0.7,5.6,2.7,10.8,5,15.9c0.7,3.7,1.5,7.4,2.2,11c-0.4,7.1,1.2,14.2,1.3,21.3
		c0.3,17.1-1.6,33.8-7.3,50c-0.6,1.8-2,3.5-1.1,5.7c-0.4,1.4-0.6,3-1.7,4.1c-1.5,1.1-1.4,2.8-1.9,4.4c-6.4,16.2-16,30.2-28.1,42.7
		c-2.8,1.8-5.2,4.1-7,7c-1.2,1.7-2.7,3.1-4.5,4c-1.7,0.4-2.9,1.3-3.5,3c-4.9,4.6-10.3,8.3-16.1,11.7c-1.7,0.2-3.1,0.7-4,2.3
		c-2.1,1.7-4.4,3-7,3.9c-2.6,0.3-4.9,1.4-6.8,3.2c-2.5,1.8-5.3,2.7-8.2,3.7c-6.2,1-11.9,3.7-17.9,5.3c-1.4,1.3-3.2,1.7-5.1,1.7
		c-6.4,0.3-12.7,1.9-19.1,2.6c-16.5,1.8-32.8,0.9-49-2.2c-1.6-0.3-3.2-1.1-4.9-0.4c-10.9-2.2-21.3-5.5-31.2-10.8
		c-1.9-1.8-4.2-2.9-6.8-3.2c-12.6-6.1-23.9-14.2-34.1-23.8c-2.5-3.5-5.5-6.5-9-9c-10.6-11.3-19.4-23.9-25.7-38.1
		c-0.2-3-1.5-5.6-3.3-7.9c-1.9-3.1-2.9-6.6-3.8-10.1c-0.1-4.5-1.6-8.6-3.3-12.7c-1.2-2.3-1.4-4.8-1.7-7.3c1-5.2-1.3-10.1-1.2-15.3
		c0.3-11.3-0.7-22.6,1.5-33.7c0.2-1,0.1-2-0.3-2.9c2.1-11.8,5.2-23.4,10.7-34.2c1.4-1.3,2.2-2.9,2.2-4.9
		c8.2-17.2,19.1-32.5,33.5-45.1c2.1-0.6,3.4-2,4.4-3.9c8.6-8.1,18.6-14.4,29.1-19.8c2.6-0.4,4.9-1.4,6.8-3.3
		c2.5-1.9,5.3-2.8,8.2-3.7c4.5-0.6,8.6-2.3,12.6-4.4c1.6-1.1,3.5-1.4,5.4-1.7c7.6-0.5,14.8-2.8,22.3-3.8c17.8-2.3,35.3-1.4,52.8,2.2
		c2.2,0.5,4.5,1.4,6.8,0.7c2.8,0.7,5.8,1,8.4,2.5c4,2.2,8.2,3.6,12.6,4.4c2.9,0.9,5.8,1.9,8.2,3.7c1.9,1.8,4.2,2.9,6.8,3.3
		c10.6,5.2,20.3,11.8,29.1,19.8C939.6,215.5,940.8,216.4,942.3,216.9z"/>
	<path class="st1" d="M429.4,55.9c13.1,0,25.5,3.9,37.7,8c18.4,6.2,35,16,49.4,28.7c15.8,13.9,28.9,30.1,38.1,49.4
		c11.8,24.7,16.6,50.7,14.4,77.7c-2.1,26-11,49.8-25.8,71.4c-8.2,11.9-17.7,22.6-28.8,31.6c-18.6,15.1-39.5,26-63,31.5
		c-8.9,2.1-17.7,4.4-26.9,3.9c-8,0.6-15.9,0.6-23.9,0c-11.8,0.5-23-2.7-34.1-5.8c-20.6-5.7-39-15.9-55.5-29.3
		c-14.3-11.6-25.8-25.6-35.2-41.5c-16-27.1-22.3-56.4-19.8-87.4c2.1-26.5,11-51,26.6-72.7c14.1-19.6,31.5-35.4,52.9-47.1
		C362.6,59.4,391.3,53.1,422,55C424.3,56.3,427,54.9,429.4,55.9z"/>
	<path class="st1" d="M1625.1,196.5c0.1,14-3.5,27.2-8.2,40.2c-5.7,15.7-14,30.1-24.5,43.1c-12.7,15.7-28.2,28-45.8,37.9
		c-19.4,10.8-40.2,17.4-62.1,19.4c-21.6,1.9-43.1,0-64-6.7c-17.1-5.5-33-13.4-47.3-24.1c-19.1-14.3-34.2-32.1-45.1-53.7
		c-7.8-15.5-12.4-31.7-15.2-48.5c-0.4-2.4-0.1-5-0.1-7.5c-0.6-7.6-0.6-15.2,0-22.8c-0.2-11.3,2.6-22,5.8-32.6
		c5.3-17.2,13.2-33.2,24.6-47.1c13.8-16.9,29.8-31.4,49.5-41.8c17.7-9.3,36.3-15,55.9-18c2.9-0.5,6-0.1,8.9-0.2
		c7.6-0.7,15.2-0.7,22.9,0c10.5-0.8,20.3,2.2,30.3,4.6c20.7,5.1,39.5,14.4,56,27.6c20.6,16.4,37,36.2,47.2,60.9
		c5.2,12.7,8.7,25.7,11,39.1c0.4,2.4,0.1,5,0.1,7.5C1625.7,181.2,1625.7,188.8,1625.1,196.5z"/>
	<path class="st1" d="M351,804.9c5.3-0.4,10.6-0.5,15.9,0c3,1.4,6.4-0.2,9.5,1c11.9,0.1,23.2,3.3,34.3,7.1
		c17.1,5.9,32.5,14.5,47,25.6c24.7,18.9,41.1,43.4,51.1,72.5c3.8,11.1,6.7,22.5,6.3,34.5c0.7,7.6,0.7,15.3,0,22.9
		c-0.1,14.1-3.9,27.4-8.6,40.6c-5.2,14.4-12.5,27.6-22,39.4c-14.1,17.4-30.7,32-50.9,42.4c-17.9,9.2-36.8,14.8-56.7,17.3
		c-1.8,0.2-3.6,0-5.5-0.1c-8.3,0.6-16.6,0.6-24.9,0c-15.8,0-30.8-4.2-45.3-9.7c-14.5-5.5-28.2-12.7-40.3-22.5
		c-31.1-25.2-51.3-56.9-57.4-97.1c-0.5-3.5-1-6.9-0.7-10.4c-0.6-7.6-0.6-15.2,0-22.8c0-14.5,3.8-28.1,8.8-41.5
		c5.6-15.1,13.6-28.9,23.6-41.4c12.9-16.1,28.9-28.8,47-38.7c16.7-9.2,34.6-14.9,53.3-17.9c1.9-0.3,4-0.1,5.9-0.1
		C344.6,804.8,348,806.4,351,804.9z"/>
	<path class="st1" d="M1072.9,940.5c0.1-12.8,4-24.8,8.3-36.5c5.1-13.7,12.1-26.5,21.2-38c11.3-14.2,24.2-26.5,39.5-36.4
		c19.2-12.4,40.2-19.7,62.6-23.6c2.3-0.4,4.6-0.1,6.9-0.2c3.8-1.2,7.8,0.5,11.5-1c4.6-0.4,9.3-0.4,13.9,0c2.7,1.4,5.7-0.2,8.5,1
		c12.9,0.1,25.2,3.8,37.2,7.9c14.3,4.9,27.7,11.6,39.7,20.8c19.7,15.1,35.9,33.1,47.3,55.7c12.7,25.4,17.6,52.1,15.3,80
		c-2,23.5-9.4,45.5-22.4,65.6c-6.9,10.6-14.3,20.7-23.5,29.3c-24.8,23.1-53.9,37.5-87.7,42.2c-3.6,0.5-7.2,1.3-10.9,0.7
		c-8,0.6-15.9,0.6-23.9,0c-11.3,0.5-22-2.4-32.6-5.4c-21.1-5.8-40.1-15.8-56.9-29.7c-20.3-16.8-35.5-37.5-45.3-62.1
		c-4.1-10.4-6.5-21.2-8.7-32c-0.4-1.7,0-3.6,0-5.4c-1.1-2.7,0.4-5.8-1-8.5c-0.5-5.7-0.5-11.3,0-17
		C1073.2,945.6,1071.9,942.9,1072.9,940.5z"/>
	<path class="st1" d="M757.6,1073.1c-16.5-0.1-32-4.6-47.1-10.5c-13.5-5.3-26.2-12.3-37.7-21.2c-9.1-7.1-16.9-15.5-24.6-24.1
		c-10.4-11.7-18.2-24.9-24-39.2c-5.8-14.3-10.4-29-10.2-44.7c-0.6-7.6-0.6-15.2,0-22.8c-0.1-14.1,3.6-27.5,8.4-40.6
		c5.7-15.5,13.7-30,24.3-42.7c25.5-30.3,57.8-49.1,97.1-55.6c2.9-0.5,5.8-1.4,8.8-0.8c11.6-0.6,23.3-0.6,34.9,0
		c10.4,0.1,20.3,2.8,30.1,5.7c19.9,6,38.1,15.6,54,28.8c29.6,24.8,48.1,56.2,53.9,94.8c0.5,3.5,1.2,6.8,0.7,10.3
		c0.7,7.3,0.7,14.6,0,21.9c0.4,12.8-3,24.9-6.8,36.9c-5.1,15.6-12.7,30-22.8,42.9c-7.4,9.4-15.9,17.9-25.2,25.7
		c-15.6,13.1-33.2,22.4-52.5,28.5c-11.8,3.7-23.8,6.9-36.4,6.7C774.1,1073.7,765.9,1073.7,757.6,1073.1z"/>
	<path d="M1188.1,328.6c0,28.8-24,52.1-53.7,52.2c-29.7,0.1-54.1-23.7-54-52.5c0.1-29.2,24.3-52.4,54.6-52.3
		C1164.5,276.1,1188.1,299.5,1188.1,328.6z"/>
	<path d="M1598,803.9c0,29-24.2,52.1-54.3,52.1c-29.4,0-53.5-23.6-53.5-52.4c0-28.9,24.3-52.5,54-52.4
		C1574.2,751.3,1598.1,774.8,1598,803.9z"/>
	<path d="M832.9,676.1c-30.1,0-53.9-23.1-53.9-52.3c0-29,24.2-52.5,54-52.3c29.7,0.2,53.7,23.4,53.8,52.2
		C887,652.6,862.8,676.1,832.9,676.1z"/>
	<path d="M93.5,380.5c-30.1-0.6-53.9-24.4-53.3-53.2c0.7-29.8,26.3-53.2,57.4-51.4c28.6,1.7,51.3,25.2,50.4,54.3
		C147.3,358,122.5,381.1,93.5,380.5z"/>
	<path class="st2" d="M982.8,380c-2.1-4.8,1.7-8.4,2.8-12.6c2.5-10.5,4.1-20.9,4.5-31.7c0.3-9.2,0.3-18.3-1-27.5
		c-0.2-1.7-0.7-3.7,0.8-5.2c4.3,25.4,3.1,50.4-6.7,74.5C982.9,378.3,982.9,379.2,982.8,380z"/>
	<path class="st3" d="M798,476.9c3.8-2.1,7.4,0.3,11,0.7c9.5,1.1,19.1,2.8,28.7,2.2c10-0.6,20.1-1.4,30-3.6c1.2-0.3,2.3-0.4,3.2,0.6
		C846.7,482.7,822.3,482.7,798,476.9z"/>
	<path class="st4" d="M874,180.3c-5.2,2.1-10-0.8-14.9-1.5c-13.8-2.1-27.6-2.2-41.4-0.9c-7.9,0.8-15.6,2.7-23.3,4
		c-0.9,0.1-1.6,0-2.2-0.7c11.3-3.2,22.6-5.5,34.4-5.2c5.4-0.7,10.7-0.7,16.1,0C853.2,175.8,863.7,177.6,874,180.3z"/>
	<path class="st5" d="M679.2,302c1.4,1.6,1,3.6,0.7,5.2c-1.9,11.5-0.4,23.1-0.9,34.7c-0.2,4,2.5,8,0.2,12.1
		C676,336.7,676,319.3,679.2,302z"/>
	<path class="st6" d="M787.5,770.9c-11.6,0-23.3,0-34.9,0c1.6-1.7,3.7-1,5.6-1c8.1-0.1,16.1-0.1,24.2,0
		C784.1,769.9,786,769.3,787.5,770.9z"/>
	<path class="st7" d="M876,475.1c5.8-2.5,11.3-5.7,17.9-5.3C888.2,472.2,882.4,474.6,876,475.1z"/>
	<path class="st8" d="M987.7,292c-3.4-4.8-5.5-9.9-5-15.9C984.9,281.2,986.4,286.6,987.7,292z"/>
	<path class="st9" d="M757.6,1073.1c8.3,0,16.5,0,24.8,0C774.1,1074.7,765.9,1074.7,757.6,1073.1z"/>
	<path class="st10" d="M346.6,1108.1c8.3,0,16.6,0,24.9,0C363.1,1109.7,354.8,1109.7,346.6,1108.1z"/>
	<path class="st11" d="M1216.6,1108.1c8,0,15.9,0,23.9,0C1232.5,1109.7,1224.5,1109.7,1216.6,1108.1z"/>
	<path class="st12" d="M400.6,358.1c8,0,15.9,0,23.9,0C416.5,359.7,408.5,359.7,400.6,358.1z"/>
	<path class="st13" d="M1480.4,33.9c-7.6,0-15.2,0-22.9,0C1465.2,32.3,1472.8,32.3,1480.4,33.9z"/>
	<path class="st14" d="M1312.9,173.6c0,7.6,0,15.2,0,22.8C1311.2,188.8,1311.3,181.2,1312.9,173.6z"/>
	<path class="st15" d="M1625.1,196.5c0-7.6,0-15.3,0-22.9C1626.7,181.2,1626.7,188.8,1625.1,196.5z"/>
	<path class="st15" d="M515.1,968.4c0-7.6,0-15.3,0-22.9C516.7,953.2,516.7,960.8,515.1,968.4z"/>
	<path class="st16" d="M202.9,945.6c0,7.6,0,15.2,0,22.8C201.3,960.8,201.3,953.2,202.9,945.6z"/>
	<path class="st16" d="M613.9,910.6c0,7.6,0,15.2,0,22.8C612.3,925.8,612.2,918.2,613.9,910.6z"/>
	<path class="st15" d="M926.1,932.4c0-7.3,0-14.6,0-21.9C927.8,917.8,927.8,925.1,926.1,932.4z"/>
	<path class="st17" d="M680.8,361.3c2.3,2.1,4.2,9.2,3.3,12.7C682.6,369.9,681.3,365.7,680.8,361.3z"/>
	<path class="st17" d="M786.7,182.8c-3.7,2.9-7.6,5.2-12.6,4.4C778.1,185.2,782.2,183.6,786.7,182.8z"/>
	<path class="st18" d="M895,187.2c-5,1.1-8.7-2.6-13.1-3.6c0,0,0-0.3,0.1-0.4c0.1-0.1,0.2-0.2,0.4-0.3
		C886.8,183.6,890.9,185.2,895,187.2z"/>
	<path class="st19" d="M717,430c4.3,1.7,7.3,4.7,9,9C722.6,436.4,719.6,433.4,717,430z"/>
	<path class="st20" d="M944.1,438.1c1-3.6,3.4-5.9,7-7C949.1,433.7,946.7,436.1,944.1,438.1z"/>
	<path class="st0" d="M842.6,175.9c-5.4,0-10.7,0-16.1,0C831.8,174.8,837.2,174.8,842.6,175.9z"/>
	<path class="st21" d="M979.1,267.9c-2.8-2.2-4.3-5.3-4.2-8.9C976.6,261.8,978.3,264.6,979.1,267.9z"/>
	<path class="st22" d="M688,384.1c2.7,2,4.3,4.4,3.3,7.9C690,389.4,688.5,386.9,688,384.1z"/>
	<path class="st23" d="M910,194.1c-3.1,1.3-4.8-1.6-7.2-2.5c0,0,0-0.3,0.1-0.4c0.1-0.1,0.2-0.2,0.3-0.3
		C905.7,191.4,907.9,192.7,910,194.1z"/>
	<path class="st24" d="M765.8,190.9c-1.5,2.7-3.7,3.9-6.8,3.3C761.1,192.8,763.3,191.4,765.8,190.9z"/>
	<path class="st25" d="M1223,804.9c-3.7,2.1-7.7,0.7-11.5,1C1215.2,804,1219.2,805,1223,804.9z"/>
	<path class="st19" d="M902.2,466.1c1.5-2.6,3.7-3.9,6.8-3.2C906.9,464.2,904.7,465.6,902.2,466.1z"/>
	<path class="st26" d="M760,462.9c3.1-0.7,5.3,0.6,6.8,3.2C764.3,465.6,762.1,464.3,760,462.9z"/>
	<path class="st14" d="M351,804.9c-3,2.1-6.3,0.7-9.5,1C344.5,804.1,347.8,805,351,804.9z"/>
	<path class="st27" d="M376.5,805.9c-3.2-0.3-6.5,1.1-9.5-1C370.2,805,373.4,804.1,376.5,805.9z"/>
	<path class="st28" d="M692.1,263c1.1,2.4,0.2,4-2.2,4.9C690.1,266,691,264.5,692.1,263z"/>
	<path class="st29" d="M1072,965c2.1,2.6,0.7,5.6,1,8.5C1071,970.8,1072.1,967.8,1072,965z"/>
	<path class="st29" d="M1245.5,805.9c-2.8-0.3-5.9,1.1-8.5-1C1239.8,805,1242.8,804,1245.5,805.9z"/>
	<path class="st30" d="M730,214c-0.4,2.7-1.1,3.3-4.4,3.9C727,216.6,728.5,215.3,730,214z"/>
	<path class="st29" d="M1072.9,940.5c-0.3,2.5,1,5.2-0.9,7.5C1072,945.5,1071.2,942.9,1072.9,940.5z"/>
	<path class="st31" d="M916,459c0.5-2.2,1.3-2.7,4-2.3C918.6,457.5,917.3,458.2,916,459z"/>
	<path class="st29" d="M429.4,55.9c-2.5-0.3-5.2,1-7.5-0.9C424.5,55,427.1,54.2,429.4,55.9z"/>
	<path class="st32" d="M942.3,216.9c-1.8-0.2-3.9-0.1-3.2-3C940.1,214.9,941.2,215.9,942.3,216.9z"/>
	<path class="st33" d="M956,231c-2.7,0.5-2.7-1.5-2.9-3.3C954.3,228.6,955.4,229.6,956,231z"/>
	<path class="st34" d="M979.1,388.4c0-1.7-0.7-3.8,1.9-4.4C981,385.8,980.3,387.2,979.1,388.4z"/>
	<path class="st35" d="M936.1,445c-0.5-2.9,1.6-2.8,3.5-3C938.4,443.1,937.2,444.1,936.1,445z"/>
</g>
</svg>
